<svg enable-background="new 0 0 50 50" height="50" viewBox="0 0 50 50" width="50" xmlns="http://www.w3.org/2000/svg"><path d="m13.888 0c-7.669 0-13.889 6.219-13.889 13.889v22.222c0 7.67 6.22 13.89 13.889 13.89h22.224c7.668 0 13.889-6.219 13.889-13.89v-22.222c-.001-7.669-6.222-13.889-13.89-13.889zm27.778 5.556c1.533 0 2.777 1.244 2.777 2.778 0 1.533-1.244 2.778-2.777 2.778s-2.777-1.245-2.777-2.778c0-1.534 1.244-2.778 2.777-2.778zm-16.667 5.555c7.67 0 13.89 6.219 13.89 13.889s-6.22 13.889-13.89 13.889c-7.669 0-13.89-6.219-13.89-13.889s6.221-13.889 13.89-13.889zm0 5.556c-4.604 0-8.333 3.731-8.333 8.333 0 4.604 3.729 8.333 8.333 8.333 4.603 0 8.333-3.731 8.333-8.333s-3.73-8.333-8.333-8.333z" fill="#0d0d0d"/></svg>