<svg enable-background="new 0 0 100 80.416" height="80.416" viewBox="0 0 100 80.416" width="100" xmlns="http://www.w3.org/2000/svg"><g fill="#fff"><path d="m1.514 22.563c-.041-.792-.045-1.763-.045-2.894v-1.953h-1.469v4.847zm3.514 0c.041-.793.046-1.721.046-2.788v-2.059h-1.506v1.953c0 1.131-.003 2.102-.01 2.894zm3.168 0c-.039-.93-.043-2.06-.043-3.466v-1.381h-1.467v1.659c0 1.225.007 2.264.053 3.188zm3.48 0c.046-.924.083-1.963.083-3.188v-1.659h-1.498v1.381c0 1.406-.004 2.536-.014 3.466zm3.17 0c-.006-.93-.008-2.06-.008-3.466v-1.381h-1.468v1.659c0 1.225.005 2.264.048 3.188zm3.375 0c.04-.684.044-1.428.043-2.299l-1.378-.301c-.031.992-.036 1.866-.043 2.6zm3.8-4.846h-1.468v4.847h1.468zm4.539 0h-1.468v4.847h1.468zm3.283 4.846c-.006-.93-.008-2.06-.008-3.466v-1.381h-1.468v1.659c0 1.225.005 2.264.048 3.188zm3.405 0c.01-.684.043-1.428.013-2.299l-1.378-.301c-.001.992-.006 1.866-.043 2.6zm2.733 0c-.004-.354-.038-.781-.041-1.222l-1.325.249c0 .341.002.675.005.974h1.361zm3.415 0c-.096-2.156-.52-3.627-1.01-4.847h-1.618c.542 1.226 1.023 2.652 1.127 4.847z"/><path d="m63.231 57.962h-2.137c0-6.791.233-7.859 1.068-7.859.828 0 1.069 1.068 1.069 7.859m1.461 1.317c.007-.579.007-1.317.007-1.867 0-6.88-.579-8.581-2.537-8.581-1.957 0-2.537 1.701-2.537 8.581v2.987h1.468v-1.12zm5.812-8.491.045-1.611c-.331-.211-.73-.346-1.122-.346-.918 0-1.551.587-1.845 2.092h-.007v-1.896h-1.114v11.373h1.468v-6.683c0-2.537.617-3.229 1.505-3.229.392-.001.723.096 1.07.3m3.711 9.611h1.469v-6.744c0-3.463-.587-4.825-2.251-4.825-1.701 0-2.432 1.272-2.439 6.105l1.378.293c.045-4.396.331-5.126 1.024-5.126.572 0 .82.768.82 3.613v3.651c-.587 1.804-2.053 1.471-2.789 3.032h1.467c.355-.53.895-.398 1.321-1.36zm6.452-5.08 1.355-.249c-.045-5.065-.768-6.24-2.327-6.24-1.423 0-2.492 1.219-2.492 4.2 0 3.755 1.121 5.357 2.087 7.368h1.623c-.98-2.255-2.249-3.705-2.249-7.331 0-2.492.527-2.965 1.024-2.965.723.001.934.881.979 5.217m2.974 5.08h1.468v-11.372h-1.468zm3.282 0h1.505v-11.372h-1.505zm7.453-9.611.015-1.611c-.301-.211-.73-.346-1.122-.346-.888 0-1.521.587-1.814 2.092h-.007v-1.896h-1.114v11.373h1.468v-6.683c0-2.537.587-3.229 1.505-3.229.392-.001.693.096 1.069.3m4.156 7.174h-2.138c0-6.791.233-7.859 1.069-7.859.828 0 1.069 1.068 1.069 7.859m1.468-.55c0-6.88-.58-8.581-2.537-8.581s-2.537 1.701-2.537 8.581v2.987h1.468v-1.12h3.599c.007-.579.007-1.317.007-1.867"/><path d="m61.134 67.283c-.009-1.016-.041-2.254-.041-3.857v-.924h-1.468v1.172c0 1.414.037 2.592.085 3.609zm3.366 0c.044-.781.05-1.666.049-2.691l-1.408-.331c-.002 1.214-.008 2.197-.048 3.022zm3.429-4.782h-1.468v4.782h1.468zm4.525 1.715c0-.749.048-1.319.109-1.715h-1.421c-.102.484-.186 1.072-.186 1.813v2.969h1.498zm3.23 3.067v-4.782h-1.468v3.853c0 .337-.001.637-.003.929zm2.974 0c-.037-.484-.042-1.021-.046-1.614l-1.325.249c0 .489.003.934.009 1.366h1.362zm3.414 0c-.05-2.098-.386-3.568-.824-4.782h-1.61c.488 1.215.877 2.644.934 4.782zm3.037-4.782h-1.468v4.782h1.468zm3.32 0h-1.505v4.782h1.505zm3.373 0h-1.468v4.782h1.468zm4.633 4.782c-.039-1.016-.041-2.254-.041-3.857v-.924h-1.468v1.172c0 1.414.037 2.592.085 3.609zm3.365 0c.044-.781.051-1.666.049-2.691l-1.408-.331c-.001 1.214-.007 2.197-.048 3.022z"/><path d="m61.273 73.043c-.085-.539-.1-1.273-.139-2.29h-1.424c.046.92.101 1.66.198 2.29zm2.993 0c.1-.629.187-1.369.234-2.29h-1.407c-.013 1.017-.064 1.751-.154 2.29zm3.663-2.29h-1.468v2.29h1.468zm4.581 2.29c-.048-.489-.056-1.129-.056-2v-.291h-1.498v.682c0 .594.037 1.129.081 1.608h1.473zm3.174 0v-2.29h-1.471c-.036.973-.083 1.713-.145 2.29zm3.126 0c-.058-.539-.108-1.273-.152-2.29h-1.362c.042.922.095 1.662.19 2.29zm3.127 0c.091-.489.138-1.067.138-1.706 0-.197-.001-.391-.003-.584h-1.5c.002.235.035.441.035.682 0 .677-.042 1.179-.095 1.608zm3.226 0c-.046-.429-.054-.931-.054-1.608v-.682h-1.468v.885c0 .529.008.977.054 1.405zm3.211 0c.047-.428.055-.875.055-1.405v-.885h-1.505v.682c0 .677-.008 1.179-.054 1.608zm3.428-2.29h-1.468v2.29h1.468zm4.772 2.29c-.085-.539-.13-1.273-.139-2.29h-1.424c.016.92.102 1.66.198 2.29zm2.992 0c.1-.629.188-1.369.234-2.29h-1.406c-.014 1.017-.095 1.751-.154 2.29z"/><path d="m95.209 77.732c.301 2.052.94 2.683 2.201 2.683 1.128 0 1.813-.623 2.156-2.683h-1.326c-.153 1.129-.435 1.411-.83 1.411-.477 0-.724-.287-.836-1.411zm-4.876 2.488h1.468v-2.487h-1.468zm-6.638-2.488c.196 1.901.879 2.683 2.34 2.683 1.424 0 2.141-.782 2.339-2.683h-1.504c-.103 1.125-.387 1.411-.834 1.411-.483 0-.739-.286-.873-1.411zm-6.209 0c.3 2.143.981 2.683 2.097 2.683 1.176 0 2.053-.819 2.354-2.683h-1.424c-.15 1.118-.492 1.411-.921 1.411-.388 0-.632-.28-.781-1.411zm-6.45 0c.15 1.947.647 2.683 1.771 2.683.88 0 1.46-.64 1.754-2.093h.007v1.897h1.115v-2.487h-1.616c-.145.981-.393 1.411-.824 1.411-.393 0-.633-.29-.734-1.411zm-4.575 2.488h1.468v-2.487h-1.468zm-6.553-2.488c.302 2.052.941 2.683 2.201 2.683 1.128 0 1.814-.623 2.156-2.683h-1.327c-.152 1.129-.435 1.411-.829 1.411-.447 0-.724-.287-.836-1.411z"/><path d="m27.042 49.027h-1.498v21.726h1.498zm-8.537 0h-1.468v21.726h1.468zm-14.937 13.662c0 5.917-.203 6.986-.986 6.986-.768 0-1.114-1.069-1.114-6.986v-5.571c0-5.947.346-7.016 1.114-7.016.783 0 .986 1.068.986 7.016zm1.506.106v-5.812c0-6.549-.489-8.152-2.003-8.152-.918 0-1.355 1.016-1.565 2.333h-.038v-2.137h-1.468v27.493h1.468v-7.875h.038c.248 1.28.647 2.304 1.528 2.304 1.513-.001 2.04-1.574 2.04-8.154m5.187-.677c0 6.489-.211 7.558-1.039 7.558-.866 0-1.069-1.069-1.069-7.558v-4.458c0-6.489.203-7.558 1.069-7.558.828 0 1.039 1.068 1.039 7.558zm1.498.278v-4.984c0-6.88-.58-8.581-2.537-8.581-1.987 0-2.537 1.701-2.537 8.581v4.984c0 6.889.549 8.552 2.537 8.552 1.958 0 2.537-1.663 2.537-8.552m1.807 8.356h1.468v-28.471h-1.468zm3.426-24.315h1.558v-1.514h-1.558zm5.51 3.899h1.867v-1.31h-1.867v-3.035l-1.498.542v2.492h-1.227v1.31h1.227v20.416h1.498zm3.027-3.899h1.528v-1.514h-1.528zm4.788 15.681v-4.458c0-6.489.203-7.558 1.031-7.558.723 0 .979 1.023 1.016 7.309l1.378-.331c0-6.745-.677-8.25-2.386-8.25-1.958 0-2.508 1.663-2.508 8.581v4.984c0 6.889.407 8.552 2.455 8.552 1.762 0 2.477-1.46 2.439-7.664l-1.378-.301c-.037 5.775-.293 6.692-1.061 6.692-.888.002-.986-1.067-.986-7.556m9.568 4.442c0-7.521-3.41-7.529-3.41-13.492 0-2.492.497-2.965 1.024-2.965.692 0 .934.88.979 5.216l1.325-.249c-.016-5.065-.738-6.24-2.296-6.24-1.423 0-2.492 1.219-2.492 4.2 0 6.534 3.373 6.497 3.373 13.626 0 2.477-.407 3.018-.986 3.018-.64 0-.918-.738-.979-5.314l-1.355.278c.038 5.225.73 6.309 2.326 6.309 1.475.001 2.491-1.271 2.491-4.387m8.561-4.442c0 6.489-.211 7.558-1.039 7.558-.866 0-1.069-1.069-1.069-7.558v-4.458c0-6.489.203-7.558 1.069-7.558.828 0 1.039 1.068 1.039 7.558zm1.497.278v-4.984c0-6.88-.58-8.581-2.537-8.581-1.987 0-2.538 1.701-2.538 8.581v4.984c0 6.889.55 8.552 2.538 8.552 1.958 0 2.537-1.663 2.537-8.552m4.601-18.94c.24 0 .489.044.775.203l-.037-1.37c-.204-.106-.587-.204-1.024-.204-1.619 0-2.312.979-2.312 3.622v3.32h-1.265v1.31h1.265v20.416h1.468v-20.417h1.868v-1.31h-1.868v-3.381c0-1.647.339-2.189 1.13-2.189"/><path d="m47.647 31.541c0 3.365-.241 4.6-.971 4.6-.579 0-.82-.587-.82-3.38v-3.358c0-3.711 1.077-2.296 1.792-3.87v6.008zm.355 5.706h1.114v-17.127c0-3.463-.587-4.796-2.281-4.796-1.672 0-2.402 1.272-2.41 6.106l1.378.293c.045-4.397.331-5.127 1.024-5.127.542 0 .82.738.82 3.613v3.622c-.82 2.447-3.259.971-3.259 5.668v3.652c0 3.131.444 4.291 1.852 4.291.881 0 1.46-.67 1.754-2.093h.008zm6.481 0h1.468v-18.602c0-2.334-.572-3.32-1.844-3.32-1.032 0-1.656.64-1.958 2.063h-.008v-1.868h-1.114v21.727h1.468v-16.299c0-3.132.241-4.352 1.077-4.352.624 0 .911.497.911 2.989zm6.836-8.093c0 5.947-.376 6.986-1.114 6.986-.82 0-1.024-1.04-1.024-6.986v-5.571c0-5.947.204-6.986 1.024-6.986.738 0 1.114 1.039 1.114 6.986zm1.468 8.093v-28.502h-1.468v8.883h-.038c-.24-1.317-.677-2.304-1.573-2.304-1.506 0-1.995 1.566-1.995 8.063v5.962c0 6.498.498 8.093 2.002 8.093.889 0 1.317-1.024 1.566-2.334h.038v2.138h1.468z"/><path d="m26.56 4.103h-1.468v11.71h1.468zm-21.486 11.71v-3.753c0-6.55-.489-8.153-2.003-8.153-.918 0-1.355 1.017-1.565 2.334h-.038v-2.138h-1.468v11.71h1.468v-3.647c0-5.917.346-6.986 1.114-6.986.783 0 .986 1.069.986 6.986v3.647zm6.685 0v-3.354c0-6.851-.58-8.552-2.537-8.552-1.987 0-2.537 1.702-2.537 8.552v3.354h1.468v-3.076c0-6.489.203-7.558 1.069-7.558.828 0 1.039 1.069 1.039 7.558v3.076zm5.187-2.774h-2.108c0-6.791.204-7.859 1.039-7.859.829 0 1.069 1.069 1.069 7.859m1.461 1.318c.007-.58.007-1.318.007-1.897 0-6.851-.55-8.552-2.537-8.552-1.958 0-2.507 1.702-2.507 8.552v3.354h1.468v-1.457zm3.614-8.944h1.897v-1.31h-1.897v-3.034l-1.468.542v2.492h-1.257v1.31h1.257v10.4h1.468zm3.026-3.9h1.559v-1.513h-1.559zm6.836 10.946 1.378-.301c0-6.745-.647-8.251-2.356-8.251-1.958 0-2.537 1.664-2.537 8.552v3.354h1.468v-3.076c0-6.489.204-7.558 1.032-7.558.721.001.977 1.025 1.015 7.28m6.113-2.062 1.354-.249c-.045-5.067-.768-6.241-2.296-6.241-1.453 0-2.492 1.22-2.492 4.201 0 3.953 1.228 5.511 2.205 7.706h1.618c-.986-2.482-2.392-3.856-2.392-7.668 0-2.522.527-2.966 1.024-2.966.723 0 .963.88.979 5.217"/><path d="m34.812 34.709c.299 2.16.98 2.734 2.1 2.734 1.181 0 2.06-.825 2.387-2.734h-1.455c-.148 1.135-.492 1.432-.924 1.432-.39 0-.635-.253-.783-1.432zm-6.195 0c.331 2.099.97 2.734 2.234 2.734 1.132 0 1.819-.626 2.16-2.734h-1.327c-.183 1.177-.435 1.432-.833 1.432-.48 0-.727-.26-.869-1.432zm-3.525 2.538h1.468v-2.538h-1.468zm-4.539 0h1.468v-2.538h-1.468zm-6.933-2.538c.3 2.099.939 2.734 2.205 2.734 1.162 0 1.849-.626 2.189-2.734h-1.357c-.152 1.177-.405 1.432-.832 1.432-.45 0-.697-.26-.839-1.432zm-6.639 0c.342 2.099 1.025 2.734 2.241 2.734 1.187 0 1.869-.635 2.211-2.734h-1.372c-.151 1.171-.435 1.432-.84 1.432-.438 0-.722-.26-.873-1.432zm-6.981 0v8.304h1.468v-7.904h.038c.248 1.31.647 2.334 1.528 2.334.967 0 1.511-.634 1.799-2.734h-1.424c-.178 1.137-.426 1.432-.826 1.432-.393 0-.682-.295-.872-1.432z"/><path d="m1.71 29.256c-.097-.595-.152-1.432-.197-2.602h-1.513v2.602zm3.123 0c.096-.69.151-1.563.195-2.602h-1.47c-.04 1.17-.089 2.007-.149 2.602zm3.517 0c-.092-.595-.142-1.431-.153-2.602h-1.459c.048 1.038.138 1.912.243 2.602zm3.084 0c.135-.69.195-1.564.243-2.602h-1.429c-.042 1.171-.093 2.007-.186 2.602zm3.552 0c-.087-.595-.102-1.431-.14-2.602h-1.427c.015 1.038.101 1.912.201 2.602zm3.028 0c.103-.69.191-1.563.207-2.602h-1.378c-.042 1.172-.094 2.008-.186 2.602zm4.007-2.602h-1.468v2.602h1.468zm4.539 0h-1.468v2.602h1.468zm3.422 2.602c-.057-.595-.102-1.431-.14-2.602h-1.427c.045 1.038.101 1.912.201 2.602zm3.029 0c.103-.69.191-1.563.237-2.602h-1.408c-.013 1.172-.094 2.008-.156 2.602zm3.125 0c-.061-.594-.141-1.43-.155-2.602h-1.361c.039 1.041.093 1.913.191 2.602zm3.162 0c.06-.455.105-1.026.105-1.626 0-.341-.003-.676-.008-.976h-1.501c.037.341.041.688.041 1.074 0 .636-.041 1.132-.092 1.528z"/></g></svg>