<svg enable-background="new 0 0 61.529 50" height="50" viewBox="0 0 61.529 50" width="61.529" xmlns="http://www.w3.org/2000/svg"><path d="m61.529 5.919c-2.263 1.004-4.696 1.683-7.25 1.988 2.604-1.564 4.606-4.037 5.549-6.983-2.438 1.447-5.139 2.496-8.016 3.062-2.3-2.453-5.582-3.986-9.211-3.986-6.974 0-12.622 5.65-12.622 12.622 0 .99.109 1.953.327 2.875-10.492-.523-19.793-5.55-26.018-13.186-1.087 1.862-1.71 4.031-1.71 6.344 0 4.38 2.229 8.243 5.616 10.508-2.071-.065-4.019-.633-5.718-1.579-.003.054-.003.105-.003.159 0 6.117 4.352 11.219 10.125 12.379-1.059.287-2.174.438-3.325.438-.815 0-1.604-.076-2.375-.226 1.606 5.017 6.269 8.664 11.793 8.767-4.323 3.385-9.767 5.403-15.679 5.403-1.018 0-2.024-.06-3.013-.177 5.589 3.581 12.225 5.673 19.354 5.673 23.216 0 35.912-19.236 35.912-35.917 0-.546-.017-1.091-.034-1.632 2.464-1.78 4.604-4.002 6.298-6.535" fill="#0d0d0d"/></svg>