<?xml version="1.0" encoding="utf-8"?>
<!-- Generator: Adobe Illustrator 22.1.0, SVG Export Plug-In . SVG Version: 6.00 Build 0)  -->
<svg version="1.0" id="Layer_1" xmlns="http://www.w3.org/2000/svg" xmlns:xlink="http://www.w3.org/1999/xlink" x="0px" y="0px"
	 viewBox="0 0 640 426.1" enable-background="new 0 0 640 426.1" xml:space="preserve">
<g>
	<path fill="#231F20" d="M4.6,426.1v-0.6l39.1-102.9h10.6l39.1,102.9v0.6H82.9l-9.3-24.4h-49l-9.3,24.4H4.6z M6,425h3.6l36.5-95.4
		l-1.9-4.9L6,425z M10.9,425h3.6l10.7-28.1h-1.1v-1.1h1.5L27,392h-2.9v-1.1h3.3l21-54.8l-1.8-4.7L10.9,425z M24.9,400.6h48.2
		l-1.5-3.8H26.5L24.9,400.6z M26.9,395.8h44.3l-1.4-3.8H28.3L26.9,395.8z M28.7,390.9h40.6L49,337.6L28.7,390.9z M46.7,328l1.5-4.2
		H45L46.7,328z M49,334.5l1.8-4.9l-1.8-4.9l-1.8,4.9L49,334.5z M83.6,425h3.6l-35.8-93.7l-1.8,4.7l21,54.8h3.3v1.1H71l1.4,3.8h1.5
		v1.1h-1.1L83.6,425z M51.4,328l1.7-4.2h-3.2L51.4,328z M88.4,425H92L53.9,324.8l-1.9,4.9L88.4,425z"/>
	<path fill="#231F20" d="M105.5,426.1v-74.2h10.9v18.4l8.9-13.4l9.9-5h14.9l10,5l5,14.9v54.3h-10.9v-54l-2.9-6.1l-6.4-3.2h-9.5
		l-19.1,9.6v53.7H105.5z M106.7,425h3.8v-72h-3.8V425z M111.5,425h3.8v-72h-3.8V425z M155.4,425h3.8v-52.9l-3.5-10.6l-10.9-3.6h-9.3
		l-9.5,4.7l-7.4,7.4l16.6-8.4h10l5.3,2.6l-1.3-2.4l1-0.6l1.9,3.8l3.5,1.8l-0.6,1l-2.1-1.1l2.4,5V425z M160.2,425h3.8v-52.9
		l-4.7-14.3l-9.5-4.7h-14.3l-9.6,4.9l-6.4,9.7l5.8-5.8l9.9-5h10l10,3.5l-1.1-3.2l1-0.4l1.4,4l3.9,1.1l-0.4,1.1l-3.1-1l3.3,9.9V425z"
		/>
	<path fill="#231F20" d="M187.1,338.4v-15.7H198v15.7H187.1z M187.1,426.1v-74.2H198v74.2H187.1z M188.2,337.3h3.8v-13.5h-3.8V337.3
		z M188.2,425h3.8v-72h-3.8V425z M193.1,337.3h3.8v-13.5h-3.8V337.3z M193.1,425h3.8v-72h-3.8V425z"/>
	<path fill="#231F20" d="M220,426.1v-74.2h10.9v18.4l8.9-13.4l9.9-5h10l10,5l4.6,13.9l9.3-13.9l9.9-5h10l10,5l5,14.9v54.3h-10.9v-54
		l-2.9-6.1l-6.4-3.2h-4.6l-19.1,9.6v53.7h-10.9v-54l-2.9-6.1l-6.4-3.2h-4.6l-19.1,9.6v53.7H220z M221.1,425h3.8v-72h-3.8V425z
		 M225.9,425h3.8v-72h-3.8V425z M264.9,425h3.8v-52.9l-3.5-10.6l-10.9-3.6h-4.5l-9.5,4.7L233,370l16.6-8.4h5.2l5.3,2.6l-1.3-2.4
		l1-0.6l1.9,3.8l3.5,1.8l-0.6,1l-2.1-1.1l2.4,5V425z M269.8,425h3.8v-52.8l-4.7-14.5l-9.5-4.7h-9.5l-9.6,4.9l-6.4,9.7l5.8-5.8l9.9-5
		h5.2l10,3.5l-1.1-3.2l1-0.4l1.4,4l3.9,1.1l-0.4,1.1l-3.1-1l3.3,9.9V425z M308.8,425h3.8v-52.9l-3.5-10.6l-10.9-3.6h-4.5l-9.5,4.7
		l-7.4,7.4l16.6-8.4h5.2l5.3,2.6l-1.3-2.4l1-0.6l1.9,3.8l3.5,1.8l-0.6,1l-2.1-1.1l2.4,5V425z M313.6,425h3.8v-52.9l-4.7-14.3
		l-9.5-4.7h-9.5l-9.6,4.9l-6.4,9.7l5.8-5.8l9.9-5h5.2l10,3.5l-1.1-3.2l1-0.4l1.4,4l3.9,1.1l-0.4,1.1l-3.1-1l3.3,9.9V425z"/>
	<path fill="#231F20" d="M350.5,426.1l-10-5l-5-10v-5.2l5-10l5-5l14.8-4.9h23.9v-4.3l-4.9-14.3l-9.3-4.6h-14.3l-4.5,4.5v10.2h-10.9
		v-10.4l5-10l10-5h14.9l9.9,5l9.9,9.9l5,14.8v29.1l4.6,4.6h5.2v10.9h-5.7l-9.5-5.4l-5.4-9.5v-2.8l-3.9,7.7l-5,5l-14.8,5H350.5z
		 M350.8,425h9.6l14.3-4.9l4.7-4.7l3.3-6.7l-7.4,7.5l-14.9,5h-10l-5.2-2.6l1.1,2.4l-1,0.4l-1.8-3.5l-3.5-1.8l0.4-1l2.4,1.1l-2.6-5.2
		v-5.2l5.2-10.2l14.8-4.9h23.9v-3.8h-23.7l-14.5,4.7l-4.7,4.7l-4.7,9.6v4.6l4.7,9.5L350.8,425z M399.5,420.1h4.2v-3.8h-4.5l-5.3-5.3
		v-29.2l-4.9-14.5l-9.6-9.6L370,353h-14.3l-9.5,4.7l-4.7,9.5v9h3.8v-9.3l2.5-5.2l-2.2,1.1l-0.6-1l3.6-1.8l1.8-3.5l1,0.6l-1.1,2.1
		l5.2-2.5h14.9l9.9,5l5,5l5,14.8v29.2L399.5,420.1z M350.8,420.1h9.6l14.3-4.9l7.2-7.2l-6.7,3.3l-14.8,5h-10l-5.3-5.3v-5.2l2.4-4.7
		l-2.1,0.7l-0.4-1l3.2-1.1l2.1-4.2l1,0.4l-1.5,3.2l10.4-3.5h23.9V392h-23.8l-14.2,4.7l-4.7,9.5v4.6l3.1,6.3L350.8,420.1z M399.5,425
		h4.2v-3.8h-4.6l-10-10v-29.5l-4.9-14.3l-4.7-4.7l-9.5-4.7h-14.3l-6.3,3.1l-3.1,6.3v9h3.8v-9.5l5.2-5.2h15l10,5l5,14.9v29.2l5,9
		L399.5,425z M351,415.3h9.5l14.3-4.9l9.5-4.7v-8.8h-23.7l-11.4,3.8l-2.8,5.6v4.5L351,415.3z"/>
	<path fill="#231F20" d="M417.1,426.1V322.7h10.9v103.4H417.1z M418.2,425h3.8V323.8h-3.8V425z M423.1,425h3.8V323.8h-3.8V425z"/>
	<path fill="#231F20" d="M465,426.1l-14.9-5l-5-10v-5.6h10.9v5l9.2,4.7h9.9l9-4.6v-4.3l-4.6-9.5l-19.3-9.7l-10-10l-5.2-10l5.2-10.2
		l14.9-5h10l14.9,5l5,10v5.6H484v-5l-9.2-4.7h-9.7l-9,4.6l4.6,9l19.3,9.7l9.9,9.9l5,9.9v5.2l-5,10l-14.9,5H465z M465.1,420.1h9.7
		l11.3-3.8l2.8-5.6v-4.6l-4.9-9.6l-4.7-4.7l-19.2-9.6l-5.2-5.2l-5.2-10l2.5-4.9l-2.2,0.7l-0.3-1.1l3.2-1l2.1-4.2l1,0.4l-1.5,3.2
		l10.4-3.5h10l10.4,3.5l-1.5-3.2l1-0.4l2.1,4.2l3.2,1l-0.3,1.1l-2.2-0.7l2.4,4.7v4.5h3.8v-4.2l-4.6-9.3l-14.3-4.9h-9.7l-14.3,4.9
		l-4.6,9.2l4.9,9.5l9.6,9.6l19.6,9.9l4.9,9.9v5.4l-10,5H465l-10.2-5.2v-4.6H451v4.2l2.8,5.6L465.1,420.1z M465.1,425h9.7l14.3-4.9
		l4.6-9.3v-4.6l-4.9-9.6l-9.6-9.6l-19.5-9.7l-5.3-10.4l10.4-5.2h10l10.2,5.2v4.6h3.8v-4.2l-2.8-5.6l-11.3-3.8h-9.7l-11.3,3.8
		l-2.8,5.4l4.9,9.5l4.7,4.7l19.2,9.6l5.2,5.2l5,9.9v5.2l-2.4,4.7l2.2-0.7l0.3,1.1l-3.2,1l-2.1,4.2l-1-0.4l1.5-3.2l-10.4,3.5h-10
		l-10.4-3.5l1.5,3.2l-1,0.4l-2.1-4.2l-3.2-1l0.3-1.1l2.2,0.7l-2.4-4.7v-4.5h-3.8v4.2l4.6,9.3L465.1,425z"/>
</g>
<g>
	<path fill="#231F20" d="M9.2,103.3V-0.1h10.7l33.7,88.5L87.3-0.1H98v103.4H87.1V29l-28.3,74.3H48.3L20,29v74.3H9.2z M10.3,102.2
		h3.8v-89l-3.8-9.9V102.2z M14.1,10.2V1h-3.5L14.1,10.2z M18.9,23v-9.6l-3.8-10v9.7L18.9,23z M15.2,102.2h3.8V26.1l-3.8-9.9V102.2z
		 M18.9,10.2V1h-3.5L18.9,10.2z M51.2,94.7l1.8-4.7L20,3.4V13L51.2,94.7z M48.7,101.2l1.9-4.9L20,16.2v9.7L48.7,101.2z M49.6,102.2
		h3.2L51.2,98L49.6,102.2z M53.6,101.2l1.8-4.9l-1.8-4.9l-1.8,4.9L53.6,101.2z M56,94.7L87.1,13V3.4l-33,86.6L56,94.7z M54.4,102.2
		h3.2L56,98L54.4,102.2z M58.5,101.2l28.7-75.3v-9.7L56.5,96.4L58.5,101.2z M88.3,10l3.5-9h-3.5V10z M88.3,23l3.8-9.9V3.4l-3.8,9.7
		V23z M88.3,102.2H92v-86l-3.8,9.9V102.2z M93.1,10.2L96.6,1h-3.5V10.2z M93.1,102.2h3.8V3.4l-3.8,9.9V102.2z"/>
	<path fill="#231F20" d="M139.8,103.3l-9.9-5l-9.9-9.9l-5-14.8V58.8l5-14.8l9.9-9.9l9.9-5h14.9l9.9,5l5,5l5,9.9v20.2h-48.7v4.2
		l4.7,14.3l9.5,4.7h14.3l6.1-3.1l3.3-6.7h10.9v0.6l-5,10l-5.2,5.2l-9.9,4.9H139.8z M140,102.2h14.3l9.6-4.7l4.7-4.7l4.5-8.9h-3.8
		l-4.9,9.6l-9.9,5h-14.9l-9.9-5l-5-5l-5-14.8V58.8l5-14.8l5-5l9.9-5h14.9l10,5l5,10v15.3h-43.9v3.8h47.6V49.3l-4.9-9.6l-4.6-4.6
		l-9.6-4.9H140l-9.6,4.9l-9.5,9.5l-4.9,14.3v14.6l4.9,14.3l9.5,9.5L140,102.2z M140,97.3h14.3l9.3-4.7l4.5-8.8h-3.6l-2.4,4.7
		l2.4-1.1l0.4,1l-3.6,1.8l-1.7,3.3l-1-0.4l1-2.1l-5,2.5h-14.9l-10-5l-5-14.9V58.8l5-14.9l10-5h14.9l5,2.5l-1-2.1l1-0.4l1.7,3.3
		L165,44l-0.4,1l-2.4-1.1l2.6,5.2v10.4h-39v3.8h42.7V49.3l-4.7-9.5l-9.5-4.7H140l-9.6,4.9l-4.6,4.6L121,59v14.5l4.9,14.3l4.6,4.6
		L140,97.3z M126,58.3h37.7v-9l-3.2-6.3l-6.1-3.1H140l-9.5,4.7L126,58.3z"/>
	<path fill="#231F20" d="M201.7,103.3l-10-5l-5-10v-5.2l5-10l5-5l14.8-4.9h23.9v-4.3l-4.9-14.3l-9.3-4.6h-14.3l-4.5,4.5v10.2h-10.9
		V44.2l5-10l10-5h14.9l9.9,5l9.9,9.9l5,14.8v29.1l4.6,4.6h5.2v10.9h-5.7l-9.5-5.4l-5.4-9.5v-2.8l-3.9,7.7l-5,5l-14.8,5H201.7z
		 M202,102.2h9.6l14.3-4.9l4.7-4.7l3.3-6.7l-7.4,7.5l-14.9,5h-10l-5.2-2.6l1.1,2.4l-1,0.4l-1.8-3.5l-3.5-1.8l0.4-1l2.4,1.1l-2.6-5.2
		v-5.2l5.2-10.2l14.8-4.9h23.9v-3.8h-23.7l-14.5,4.7l-4.7,4.7l-4.7,9.6V88l4.7,9.5L202,102.2z M250.7,97.3h4.2v-3.8h-4.5l-5.3-5.3
		V59l-4.9-14.5l-9.6-9.6l-9.5-4.7h-14.3l-9.5,4.7l-4.7,9.5v9h3.8v-9.3l2.5-5.2l-2.2,1.1l-0.6-1l3.6-1.8l1.8-3.5l1,0.6l-1.1,2.1
		l5.2-2.5h14.9l9.9,5l5,5l5,14.8V88L250.7,97.3z M202,97.3h9.6l14.3-4.9l7.2-7.2l-6.7,3.3l-14.8,5h-10l-5.3-5.3v-5.2l2.4-4.7
		l-2.1,0.7l-0.4-1l3.2-1.1l2.1-4.2l1,0.4l-1.5,3.2l10.4-3.5h23.9v-3.8h-23.8l-14.2,4.7l-4.7,9.5V88l3.1,6.3L202,97.3z M250.7,102.2
		h4.2v-3.8h-4.6l-10-10V58.9l-4.9-14.3l-4.7-4.7l-9.5-4.7h-14.3l-6.3,3.1l-3.1,6.3v9h3.8V44l5.2-5.2h15l10,5l5,14.9V88l5,9
		L250.7,102.2z M202.1,92.5h9.5l14.3-4.9l9.5-4.7v-8.8h-23.7l-11.4,3.8l-2.8,5.6v4.5L202.1,92.5z"/>
	<path fill="#231F20" d="M268.2,103.3V29.1h10.9v18.4l8.9-13.4l9.9-5h14.9l10,5l5,14.9v54.3H317v-54l-2.9-6.1l-6.4-3.2h-9.5
		l-19.1,9.6v53.7H268.2z M269.4,102.2h3.8v-72h-3.8V102.2z M274.2,102.2h3.8v-72h-3.8V102.2z M318.1,102.2h3.8V49.3l-3.5-10.6
		l-10.9-3.6h-9.3l-9.5,4.7l-7.4,7.4l16.6-8.4h10l5.3,2.6l-1.3-2.4l1-0.6l1.9,3.8l3.5,1.8l-0.6,1l-2.1-1.1l2.4,5V102.2z M322.9,102.2
		h3.8V49.3L322,35l-9.5-4.7h-14.3l-9.6,4.9l-6.4,9.7L288,39l9.9-5h10l10,3.5l-1.1-3.2l1-0.4l1.4,4l3.9,1.1l-0.4,1.1l-3.1-1l3.3,9.9
		V102.2z"/>
	<path fill="#231F20" d="M349.8,15.6V-0.1h10.9v15.7H349.8z M349.8,103.3V29.1h10.9v74.2H349.8z M350.9,14.5h3.8V1h-3.8V14.5z
		 M350.9,102.2h3.8v-72h-3.8V102.2z M355.8,14.5h3.8V1h-3.8V14.5z M355.8,102.2h3.8v-72h-3.8V102.2z"/>
	<path fill="#231F20" d="M382.7,103.3V29.1h10.9v18.4l8.9-13.4l9.9-5h14.9l10,5l5,14.9v54.3h-10.9v-54l-2.9-6.1l-6.4-3.2h-9.5
		l-19.1,9.6v53.7H382.7z M383.8,102.2h3.8v-72h-3.8V102.2z M388.6,102.2h3.8v-72h-3.8V102.2z M432.5,102.2h3.8V49.3l-3.5-10.6
		l-10.9-3.6h-9.3l-9.5,4.7l-7.4,7.4l16.6-8.4h10l5.3,2.6l-1.3-2.4l1-0.6l1.9,3.8l3.5,1.8l-0.6,1l-2.1-1.1l2.4,5V102.2z M437.4,102.2
		h3.8V49.3L436.4,35l-9.5-4.7h-14.3l-9.6,4.9l-6.4,9.7l5.8-5.8l9.9-5h10l10,3.5l-1.1-3.2l1-0.4l1.4,4l3.9,1.1l-0.4,1.1l-3.1-1
		l3.3,9.9V102.2z"/>
	<path fill="#231F20" d="M469.5,127.7l-10-5l-5.2-10.2l5.2-10.2l11.7-3.9h-1.7l-5.3-5.3v-5.3l5-5l8.9-4.5l-8.8-4.3l-5.2-5.2
		L459.4,54l5-14.9l5.2-5.2l9.7-4.9h39.7V40h-9.5l4.6,14.1l-5,15l-4.9,4.9l-10,5h-14.3l-4.5,8.6H499l10,5.2l4.9,4.7l5,10v5.3l-5,9.9
		l-10,5H469.5z M469.8,126.6h33.8l9.5-4.7l4.7-9.3v-4.7l-4.7-9.5l-4.3-4.5l-10-5.2H474V88l3.3-6.7l-7.1,7.1v4H499l10,5l5,10v5.2
		l-2.6,5.2l2.4-1.1l0.4,1l-3.5,1.8l-1.8,3.5l-1-0.6l1-2.1l-4.9,2.5h-34.4l-5.2-2.5l1.1,2.1l-1,0.6l-1.8-3.5l-3.6-1.8l0.4-1.1
		l2.4,1.3l-2.6-5.3l5-10l3.6-1.8l-7.7,2.5l-4.7,9.3l4.7,9.3L469.8,126.6z M479.5,77.8h14.3l9.7-4.9l4.5-4.5L513,54l-4.7-14.2
		l-4.7-4.7h-7.1l7.8,4l5,14.9l-5,15l-10,5h-14.9l-10-5l-5-15l5-15l10-5h38.6v-3.8h-38.3l-9.5,4.7l-4.7,4.7L460.5,54l4.7,14.3
		l4.7,4.7L479.5,77.8z M469.9,121.7h33.8l6-3.1l3.2-6.3v-4.6l-4.7-9.5l-9.5-4.7h-29.7V88l7.7-7.7l-6.8,3.3l-4.6,4.6v4.5l4.6,4.6H499
		l5.2,2.6l-1.1-2.2l1-0.6l1.8,3.6l3.5,1.8l-0.4,1l-2.2-1.1l2.5,5v5.2l-5.3,5.3h-34.5l-5.3-5.3l5.2-10.2l2.4-2.4l-6.4,3.2l-4.6,9.2
		l3.1,6.1L469.9,121.7z M479.5,73h14.3l9.5-4.7l4.7-14.2l-4.9-14.2l-9.3-4.7h-14.3l-9.5,4.7L465.3,54l4.7,14.2L479.5,73z
		 M469.9,116.8h33.5l4.6-4.6v-4.5l-3.1-6.1l-6.3-3.2h-23.9l-4.7,4.7l-4.6,9.2L469.9,116.8z M474.3,69.5l-1.1-3.3l-4.2-2.1l0.4-1
		l3.2,1.5L469.1,54l3.5-10.6l-3.2,1.5l-0.4-1l4.2-2.1l1.1-3.3l1.1,0.4l-0.8,2.2l4.7-2.4h14.9l4.7,2.4l-0.8-2.2l1.1-0.4l1.1,3.3
		l4.2,2.1l-0.4,1l-3.2-1.5l3.5,10.6l-3.5,10.6l3.2-1.5l0.4,1l-4.2,2.1l-1.1,3.3l-1.1-0.4l0.8-2.2l-4.7,2.4h-14.9l-4.7-2.4l0.8,2.2
		L474.3,69.5z M479.5,68.1h14.3l5.6-2.8l3.8-11.3l-3.8-11.3l-5.6-2.8h-14.3l-5.6,2.8L470.2,54l3.8,11.3L479.5,68.1z M508.8,38.9h9
		v-3.8H505L508.8,38.9z"/>
</g>
<g>
	<path fill="#231F20" d="M184.7,264.6l-14.6-4.9l-5.3-5.3l-4.9-9.7v-10.4h10.9v10.2l2.8,5.6l11.3,3.8h19.5l11.3-3.8l2.8-5.6v-9.5
		l-4.7-9.5L174.9,211l-10.2-10.2l-4.9-9.7v-10l4.9-9.7l5.3-5.3l14.6-4.9h19.8l14.6,4.9l5.3,5.3l4.9,9.7v10.4h-10.9v-10.2l-2.8-5.6
		l-11.3-3.8h-19.5l-11.3,3.8l-2.8,5.6v9.5l4.7,9.5l38.7,14.5l10.2,10.2l4.9,9.7v10l-4.9,9.7l-5.3,5.3l-14.6,4.9H184.7z M184.8,258.6
		h19.5l14.2-4.7l4.7-9.5v-9.5l-4.7-9.6l-4.6-4.6l-39-14.6l-5.2-5.2l-5-9.9v-10l5-10l14.9-5h19.8l14.9,5l5,10v9.3h3.8v-9l-4.7-9.5
		l-4.9-4.9l-14.2-4.7h-19.5l-14.2,4.7l-4.9,4.9l-4.7,9.5v9.5l4.7,9.5l9.7,9.7l39,14.6l5,10v10l-2.4,4.7l2.1-0.7l0.4,1l-3.2,1.1
		l-2.1,4.2l-1-0.4l1.7-3.3l-10.6,3.6h-19.8l-10.6-3.6l1.7,3.3l-1,0.4l-2.1-4.2l-3.2-1.1l0.4-1l2.1,0.7l-2.4-4.7v-9.3h-3.8v9l4.7,9.5
		L184.8,258.6z M184.8,263.5h19.5l14.2-4.7l4.9-4.9l4.7-9.5v-9.5l-4.7-9.5l-9.7-9.7l-39-14.6l-5-10v-10l2.4-4.7l-2.1,0.7l-0.4-1
		l3.2-1.1l2.1-4.2l1,0.4l-1.7,3.3l10.6-3.6h19.8l10.6,3.6l-1.7-3.3l1-0.4l2.1,4.2l3.2,1.1l-0.4,1l-2.1-0.7l2.4,4.7v9.3h3.8v-9
		l-4.7-9.5l-14.2-4.7h-19.5l-14.2,4.7l-4.7,9.5v9.5l4.7,9.5l4.6,4.6l39.3,14.9l4.9,4.9l5,10v10l-5,10l-14.9,5h-19.8l-14.9-5l-5-10
		v-9.3H161v9l4.7,9.5l4.9,4.9L184.8,263.5z"/>
	<path fill="#231F20" d="M266.3,264.6l-9.9-5l-9.9-9.9l-5-14.8V220l5-14.8l9.9-9.9l9.9-5h14.9l9.9,5l5,5l5,9.9v20.2h-48.7v4.2
		l4.7,14.3l9.5,4.7h14.3l6.1-3.1l3.3-6.7h10.9v0.6l-5,10l-5.2,5.2l-9.9,4.9H266.3z M266.5,263.5h14.3l9.6-4.7l4.7-4.7l4.5-8.9h-3.8
		l-4.9,9.6l-9.9,5h-14.9l-9.9-5l-5-5l-5-14.8V220l5-14.8l5-5l9.9-5h14.9l10,5l5,10v15.3h-43.9v3.8h47.6v-18.8l-4.9-9.6l-4.6-4.6
		l-9.6-4.9h-14.3l-9.6,4.9l-9.5,9.5l-4.9,14.3v14.6l4.9,14.3l9.5,9.5L266.5,263.5z M266.5,258.6h14.3l9.3-4.7l4.5-8.8H291l-2.4,4.7
		l2.4-1.1l0.4,1l-3.6,1.8l-1.7,3.3l-1-0.4l1-2.1l-5,2.5h-14.9l-10-5l-5-14.9V220l5-14.9l10-5h14.9l5,2.5l-1-2.1l1-0.4l1.7,3.3
		l3.6,1.8l-0.4,1l-2.4-1.1l2.6,5.2v10.4h-39v3.8h42.7v-13.9l-4.7-9.5l-9.5-4.7h-14.3l-9.6,4.9l-4.6,4.6l-4.9,14.5v14.5l4.9,14.3
		l4.6,4.6L266.5,258.6z M252.5,219.6h37.7v-9l-3.2-6.3l-6.1-3.1h-14.3l-9.5,4.7L252.5,219.6z"/>
	<path fill="#231F20" d="M337.9,264.6l-9.9-5l-9.9-9.9l-5-14.8V220l5-14.8l9.9-9.9l9.9-5h14.9l9.9,5l5,5l5,9.9v20.2H324v4.2
		l4.7,14.3l9.5,4.7h14.3l6.1-3.1l3.3-6.7h10.9v0.6l-5,10l-5.2,5.2l-9.9,4.9H337.9z M338.2,263.5h14.3l9.6-4.7l4.7-4.7l4.5-8.9h-3.8
		l-4.9,9.6l-9.9,5h-14.9l-9.9-5l-5-5l-5-14.8V220l5-14.8l5-5l9.9-5h14.9l10,5l5,10v15.3H324v3.8h47.6v-18.8l-4.9-9.6l-4.6-4.6
		l-9.6-4.9h-14.3l-9.6,4.9l-9.5,9.5l-4.9,14.3v14.6l4.9,14.3l9.5,9.5L338.2,263.5z M338.2,258.6h14.3l9.3-4.7l4.5-8.8h-3.6l-2.4,4.7
		l2.4-1.1l0.4,1l-3.6,1.8l-1.7,3.3l-1-0.4l1-2.1l-5,2.5h-14.9l-10-5l-5-14.9V220l5-14.9l10-5h14.9l5,2.5l-1-2.1l1-0.4l1.7,3.3
		l3.6,1.8l-0.4,1l-2.4-1.1l2.6,5.2v10.4h-39v3.8h42.7v-13.9l-4.7-9.5l-9.5-4.7h-14.3l-9.6,4.9l-4.6,4.6l-4.9,14.5v14.5l4.9,14.3
		l4.6,4.6L338.2,258.6z M324.2,219.6h37.7v-9l-3.2-6.3l-6.1-3.1h-14.3l-9.5,4.7L324.2,219.6z"/>
	<path fill="#231F20" d="M389.9,264.6V161.1h10.9v67.5l38.3-38.3h10.7v0.6l-29.4,29.4l29.2,43.7v0.6h-10.7L413.7,227l-12.9,12.9
		v24.6H389.9z M391,263.5h3.8V162.3H391V263.5z M395.8,263.5h3.8V162.3h-3.8V263.5z M400.7,233.5l10.4-10.4l-1.4-1.9l-9,9V233.5z
		 M400.7,238.4l12.4-12.4l-1.4-1.9l-11,11V238.4z M412,222.3l30.8-30.8h-3.3l-28.8,28.8L412,222.3z M413.9,225.2l2.1-2.1l-1.4-1.9
		l-2.1,2.1L413.9,225.2z M439.4,263.5h3.3l-26.2-39.4l-2.1,2.1L439.4,263.5z M416.9,222.3l30.8-30.8h-3.3l-28.8,28.8L416.9,222.3z
		 M444.3,263.5h3.3l-28.1-42.3l-2.1,2.1L444.3,263.5z"/>
	<path fill="#231F20" d="M461.7,176.9v-15.7h10.9v15.7H461.7z M461.7,264.6v-74.2h10.9v74.2H461.7z M462.8,175.8h3.8v-13.5h-3.8
		V175.8z M462.8,263.5h3.8v-72h-3.8V263.5z M467.7,175.8h3.8v-13.5h-3.8V175.8z M467.7,263.5h3.8v-72h-3.8V263.5z"/>
	<path fill="#231F20" d="M494.5,264.6v-74.2h10.9v18.4l8.9-13.4l9.9-5h14.9l10,5l5,14.9v54.3h-10.9v-54l-2.9-6.1l-6.4-3.2h-9.5
		l-19.1,9.6v53.7H494.5z M495.7,263.5h3.8v-72h-3.8V263.5z M500.5,263.5h3.8v-72h-3.8V263.5z M544.4,263.5h3.8v-52.9l-3.5-10.6
		l-10.9-3.6h-9.3l-9.5,4.7l-7.4,7.4l16.6-8.4h10l5.3,2.6l-1.3-2.4l1-0.6l1.9,3.8l3.5,1.8l-0.6,1l-2.1-1.1l2.4,5V263.5z M549.2,263.5
		h3.8v-52.9l-4.7-14.3l-9.5-4.7h-14.3l-9.6,4.9l-6.4,9.7l5.8-5.8l9.9-5h10l10,3.5l-1.1-3.2l1-0.4l1.4,4l3.9,1.1l-0.4,1.1l-3.1-1
		l3.3,9.9V263.5z"/>
	<path fill="#231F20" d="M581.4,288.9l-10-5l-5.2-10.2l5.2-10.2l11.7-3.9h-1.7l-5.3-5.3v-5.3l5-5l8.9-4.5l-8.8-4.3l-5.2-5.2
		l-4.9-14.9l5-14.9l5.2-5.2l9.7-4.9h39.7v10.9h-9.5l4.6,14.1l-5,15l-4.9,4.9l-10,5h-14.3l-4.5,8.6h23.7l10,5.2l4.9,4.7l5,10v5.3
		l-5,9.9l-10,5H581.4z M581.7,287.8h33.8l9.5-4.7l4.7-9.3V269l-4.7-9.5l-4.3-4.5l-10-5.2h-24.8v-0.7l3.3-6.7l-7.1,7.1v4h28.8l10,5
		l5,10v5.2l-2.6,5.2l2.4-1.1l0.4,1l-3.5,1.8l-1.8,3.5l-1-0.6l1-2.1l-4.9,2.5h-34.4l-5.2-2.5l1.1,2.1l-1,0.6l-1.8-3.5l-3.6-1.8
		l0.4-1.1l2.4,1.3l-2.6-5.3l5-10l3.6-1.8l-7.7,2.5l-4.7,9.3l4.7,9.3L581.7,287.8z M591.4,239.1h14.3l9.7-4.9l4.5-4.5l4.9-14.5
		l-4.7-14.2l-4.7-4.7h-7.1l7.8,4l5,14.9l-5,15l-10,5h-14.9l-10-5l-5-15l5-15l10-5h38.6v-3.8h-38.3l-9.5,4.7l-4.7,4.7l-4.9,14.3
		l4.7,14.3l4.7,4.7L591.4,239.1z M581.8,283h33.8l6-3.1l3.2-6.3V269l-4.7-9.5l-9.5-4.7H581v-5.6l7.7-7.7l-6.8,3.3l-4.6,4.6v4.5
		l4.6,4.6h29.1l5.2,2.6l-1.1-2.2l1-0.6l1.8,3.6l3.5,1.8l-0.4,1l-2.2-1.1l2.5,5v5.2l-5.3,5.3h-34.5l-5.3-5.3l5.2-10.2l2.4-2.4
		l-6.4,3.2l-4.6,9.2l3.1,6.1L581.8,283z M591.4,234.2h14.3l9.5-4.7l4.7-14.2l-4.9-14.2l-9.3-4.7h-14.3l-9.5,4.7l-4.7,14.2l4.7,14.2
		L591.4,234.2z M581.8,278.1h33.5l4.6-4.6V269l-3.1-6.1l-6.3-3.2h-23.9l-4.7,4.7l-4.6,9.2L581.8,278.1z M586.1,230.8l-1.1-3.3
		l-4.2-2.1l0.4-1l3.2,1.5l-3.5-10.6l3.5-10.6l-3.2,1.5l-0.4-1l4.2-2.1l1.1-3.3l1.1,0.4l-0.8,2.2l4.7-2.4H606l4.7,2.4l-0.8-2.2
		l1.1-0.4l1.1,3.3l4.2,2.1l-0.4,1l-3.2-1.5l3.5,10.6l-3.5,10.6l3.2-1.5l0.4,1l-4.2,2.1l-1.1,3.3l-1.1-0.4l0.8-2.2l-4.7,2.4h-14.9
		l-4.7-2.4l0.8,2.2L586.1,230.8z M591.4,229.4h14.3l5.6-2.8l3.8-11.3l-3.8-11.3l-5.6-2.8h-14.3l-5.6,2.8l-3.8,11.3l3.8,11.3
		L591.4,229.4z M620.7,200.1h9v-3.8h-12.8L620.7,200.1z"/>
</g>
</svg>
