<?xml version="1.0" encoding="utf-8"?>
<!-- Generator: Adobe Illustrator 22.1.0, SVG Export Plug-In . SVG Version: 6.00 Build 0)  -->
<svg version="1.1" id="Laag_1" xmlns="http://www.w3.org/2000/svg" xmlns:xlink="http://www.w3.org/1999/xlink" x="0px" y="0px"
	 viewBox="0 0 21.6 17.5" style="enable-background:new 0 0 21.6 17.5;" xml:space="preserve">
<path d="M21.5,2.1c-0.5,0.8-1.1,1.5-1.9,2.1c-0.1,0.1-0.3,0.2-0.3,0.3c-0.1,0.2,0,0.6,0,0.8c0,1.8-0.4,3.2-1,4.6
	c-0.6,1.5-1.4,2.7-2.5,3.9c-2,2.1-4.7,3.7-8.7,3.9h-1c-2.5-0.1-4.7-0.9-6.3-2c2.5,0.3,4.8-0.5,6.4-1.7c0,0,0.1,0,0.1-0.1
	c-2.2-0.2-3.5-1.4-4.1-3.1c0.6,0.1,1.4,0.1,1.9-0.1C2.3,10,0.9,8.6,0.8,6.2C1.4,6.5,2,6.7,2.8,6.7C2,6.2,1.3,5.3,1,4.2
	C0.7,3.1,0.9,1.7,1.5,0.8c2.1,2.5,4.9,4.3,9.1,4.6c-0.6-3,1.4-5.2,4-5.4h0.7c0.9,0.1,1.8,0.4,2.4,0.9C17.8,1,18,1.4,18.2,1.4
	c0.2,0,0.6-0.1,0.8-0.2c0.7-0.2,1.4-0.6,2-0.9c-0.3,1-1,1.8-1.8,2.3c0,0-0.1,0-0.1,0.1C20,2.6,20.8,2.4,21.5,2.1"/>
</svg>
