<?xml version="1.0" encoding="utf-8"?>
<!-- Generator: Adobe Illustrator 22.1.0, SVG Export Plug-In . SVG Version: 6.00 Build 0)  -->
<svg version="1.1" id="Laag_1" xmlns="http://www.w3.org/2000/svg" xmlns:xlink="http://www.w3.org/1999/xlink" x="0px" y="0px"
	 viewBox="0 0 21.6 21.6" style="enable-background:new 0 0 21.6 21.6;" xml:space="preserve">
<path d="M20.4,0H1.2C0.5,0,0,0.5,0,1.2v19.2c0,0.7,0.5,1.2,1.2,1.2h10.5v-8.4h-3v-3h3V7.4c0-2.8,1.6-4.4,4.1-4.4
	C17,3,18,3.1,18.3,3.2v3.1h-2c-1.4,0-1.6,0.7-1.6,1.6v2.3h3.5l-0.5,3h-3v8.4h5.7c0.7,0,1.2-0.5,1.2-1.2V1.2C21.6,0.5,21,0,20.4,0z"
	/>
</svg>
