<?xml version="1.0" encoding="utf-8"?>
<!-- Generator: Adobe Illustrator 16.0.0, SVG Export Plug-In . SVG Version: 6.00 Build 0)  -->
<!DOCTYPE svg PUBLIC "-//W3C//DTD SVG 1.1//EN" "http://www.w3.org/Graphics/SVG/1.1/DTD/svg11.dtd">
<svg version="1.1" id="Layer_1" xmlns="http://www.w3.org/2000/svg" xmlns:xlink="http://www.w3.org/1999/xlink" x="0px" y="0px"
	 width="15px" height="15px" viewBox="0 0 15 15" enable-background="new 0 0 15 15" xml:space="preserve">
<path fill="#114526" d="M9.05,7.496l5.632-5.629c0.426-0.427,0.426-1.121,0-1.554c-0.429-0.427-1.121-0.427-1.557,0L7.496,5.942
	L1.873,0.318c-0.427-0.426-1.121-0.426-1.554,0c-0.426,0.427-0.426,1.121,0,1.554l5.63,5.629l-5.63,5.63
	c-0.426,0.426-0.426,1.121,0,1.555c0.213,0.213,0.494,0.322,0.773,0.322c0.28,0,0.562-0.109,0.774-0.322l5.629-5.631l5.629,5.631
	c0.214,0.213,0.494,0.322,0.774,0.322c0.278,0,0.561-0.109,0.772-0.322c0.427-0.428,0.427-1.121,0-1.555L9.05,7.496z"/>
</svg>
