<?xml version="1.0" encoding="utf-8"?>
<!-- Generator: Adobe Illustrator 16.2.1, SVG Export Plug-In . SVG Version: 6.00 Build 0)  -->
<!DOCTYPE svg PUBLIC "-//W3C//DTD SVG 1.1//EN" "http://www.w3.org/Graphics/SVG/1.1/DTD/svg11.dtd">
<svg version="1.1" id="Laag_1" xmlns="http://www.w3.org/2000/svg" xmlns:xlink="http://www.w3.org/1999/xlink" x="0px" y="0px"
	 width="50px" height="50px" viewBox="315.155 0 50 50" enable-background="new 315.155 0 50 50" xml:space="preserve">
<path fill="#FFFFFF" d="M329.044,0c-7.669,0-13.889,6.219-13.889,13.889v22.223c0,7.669,6.22,13.889,13.889,13.889h22.223
	c7.669,0,13.889-6.219,13.889-13.889V13.889c0-7.669-6.22-13.889-13.889-13.889H329.044z M356.822,5.556
	c1.533,0,2.777,1.244,2.777,2.778c0,1.533-1.244,2.778-2.777,2.778s-2.777-1.245-2.777-2.778
	C354.045,6.8,355.289,5.556,356.822,5.556z M340.155,11.111c7.67,0,13.89,6.219,13.89,13.889s-6.22,13.889-13.89,13.889
	c-7.669,0-13.889-6.219-13.889-13.889S332.486,11.111,340.155,11.111z M340.155,16.667c-4.603,0-8.333,3.731-8.333,8.333
	c0,4.603,3.73,8.333,8.333,8.333s8.333-3.731,8.333-8.333C348.488,20.398,344.758,16.667,340.155,16.667z"/>
</svg>
