<?xml version="1.0" encoding="utf-8"?>
<!-- Generator: Adobe Illustrator 16.2.1, SVG Export Plug-In . SVG Version: 6.00 Build 0)  -->
<!DOCTYPE svg PUBLIC "-//W3C//DTD SVG 1.1//EN" "http://www.w3.org/Graphics/SVG/1.1/DTD/svg11.dtd">
<svg version="1.1" id="Laag_1" xmlns="http://www.w3.org/2000/svg" xmlns:xlink="http://www.w3.org/1999/xlink" x="0px" y="0px"
	 width="61.529px" height="50px" viewBox="0 0 61.529 50" enable-background="new 0 0 61.529 50" xml:space="preserve">
<path id="path22" fill="#FFFFFF" d="M61.529,5.919c-2.263,1.004-4.696,1.683-7.25,1.988c2.604-1.564,4.607-4.037,5.549-6.983
	c-2.438,1.447-5.139,2.496-8.016,3.062C49.512,1.533,46.23,0,42.601,0c-6.973,0-12.622,5.65-12.622,12.622
	c0,0.99,0.11,1.953,0.327,2.875C19.814,14.974,10.513,9.947,4.288,2.311c-1.087,1.862-1.71,4.031-1.71,6.344
	c0,4.38,2.228,8.243,5.616,10.508c-2.071-0.065-4.018-0.633-5.718-1.579c-0.003,0.054-0.003,0.105-0.003,0.159
	c0,6.117,4.352,11.219,10.125,12.379c-1.058,0.287-2.173,0.438-3.325,0.438c-0.815,0-1.603-0.075-2.375-0.225
	c1.607,5.016,6.269,8.664,11.793,8.767c-4.323,3.385-9.766,5.403-15.679,5.403c-1.017,0-2.024-0.06-3.012-0.177
	C5.588,47.908,12.224,50,19.353,50c23.216,0,35.912-19.236,35.912-35.917c0-0.546-0.016-1.091-0.034-1.632
	c2.464-1.78,4.604-4.002,6.298-6.535"/>
</svg>
