<svg enable-background="new 298.5 0 15 15" height="15" viewBox="298.5 0 15 15" width="15" xmlns="http://www.w3.org/2000/svg"><path d="m307.551 7.496 5.63-5.629c.426-.427.426-1.121 0-1.554-.427-.427-1.121-.427-1.555 0l-5.629 5.629-5.623-5.624c-.427-.426-1.121-.426-1.554 0-.426.427-.426 1.121 0 1.554l5.63 5.629-5.63 5.63c-.426.426-.426 1.121 0 1.554.213.213.494.323.774.323s.561-.11.774-.323l5.629-5.63 5.629 5.63c.214.213.494.323.774.323s.561-.11.774-.323c.426-.427.426-1.121 0-1.554z" fill="#114526"/></svg>
