<?xml version="1.0" encoding="utf-8"?>
<!-- Generator: Adobe Illustrator 16.2.1, SVG Export Plug-In . SVG Version: 6.00 Build 0)  -->
<!DOCTYPE svg PUBLIC "-//W3C//DTD SVG 1.1//EN" "http://www.w3.org/Graphics/SVG/1.1/DTD/svg11.dtd">
<svg version="1.1" id="Laag_1" xmlns="http://www.w3.org/2000/svg" xmlns:xlink="http://www.w3.org/1999/xlink" x="0px" y="0px"
	 width="340.594px" height="141.865px" viewBox="0 0 340.594 141.865" enable-background="new 0 0 340.594 141.865"
	 xml:space="preserve">
<g>
	<polyline fill="none" stroke="#FFF" stroke-width="7" points="0,2.531 0.334,2.531 0.667,2.531 1.001,2.531 1.334,2.531 
		1.667,2.661 2.001,2.661 2.334,2.661 2.668,2.661 3.001,2.661 3.446,2.661 3.78,2.792 4.113,2.792 4.446,2.792 4.78,2.792
		5.113,2.923 5.447,2.923 5.78,2.923 6.114,3.053 6.447,3.053 6.781,3.053 7.115,3.183 7.448,3.183 7.781,3.312 8.115,3.312
		8.559,3.443 8.893,3.443 9.226,3.573 9.56,3.573 9.894,3.703 10.227,3.833 10.56,3.833 10.894,3.964 11.227,4.095 11.561,4.095
		11.894,4.225 12.227,4.354 12.561,4.354 12.895,4.484 13.228,4.615 13.562,4.745 14.006,4.875 14.34,4.875 14.673,5.007
		15.006,5.136 15.34,5.267 15.674,5.396 16.007,5.526 16.341,5.657 16.674,5.786 17.008,5.917 17.341,6.048 17.675,6.178
		18.008,6.309 18.341,6.438 18.675,6.568 19.008,6.698 19.453,6.959 19.787,7.09 20.12,7.22 20.454,7.35 20.787,7.48 21.12,7.74
		21.454,7.87 21.787,8 22.121,8.132 22.454,8.392 22.788,8.521 23.121,8.652 23.455,8.912 23.788,9.043 24.122,9.304 24.566,9.434
		24.9,9.693 25.233,9.823 25.567,10.084 25.9,10.215 26.234,10.475 26.567,10.605 26.901,10.866 27.234,10.995 27.568,11.257
		27.901,11.387 28.235,11.646 28.568,11.907 28.901,12.037 29.235,12.298 29.568,12.559 30.013,12.819 30.347,12.949 30.68,13.209
		31.014,13.471 31.347,13.73 31.68,13.86 32.014,14.121 32.347,14.382 32.681,14.643 33.015,14.902 33.348,15.163 33.682,15.424
		34.015,15.684 34.349,15.814 34.682,16.074 35.015,16.334 35.46,16.596 35.794,16.855 36.127,17.116 36.461,17.507 36.794,17.768
		37.128,18.028 37.461,18.288 37.794,18.549 38.128,18.81 38.461,19.069 38.795,19.33 39.128,19.591 39.462,19.981 39.795,20.241
		40.129,20.503 40.462,20.763 40.907,21.153 41.24,21.413 41.574,21.675 41.907,21.935 42.241,22.325 42.574,22.586 42.908,22.846
		43.241,23.237 43.575,23.497 43.908,23.758 44.242,24.148 44.575,24.408 44.909,24.8 45.242,25.061 45.575,25.45 46.02,25.712
		46.354,26.102 46.687,26.362 47.021,26.753 47.354,27.014 47.688,27.403 48.021,27.664 48.354,28.055 48.688,28.315 49.021,28.705
		49.355,28.967 49.688,29.357 50.022,29.748 50.356,30.009 50.689,30.399 51.023,30.789 51.467,31.051 51.8,31.44 52.134,31.831
		52.467,32.092 52.801,32.482 53.135,32.873 53.468,33.264 53.802,33.524 54.135,33.914 54.468,34.306 54.802,34.696 55.135,34.956
		55.469,35.348 55.802,35.737 56.136,36.129 56.469,36.52 56.914,36.91 57.247,37.171 57.581,37.562 57.914,37.951 58.248,38.343
		58.581,38.733 58.915,39.123 59.248,39.515 59.582,39.905 59.915,40.296 60.249,40.687 60.582,41.076 60.916,41.469 61.249,41.858
		61.583,42.248 62.027,42.64 62.361,43.03 62.694,43.422 63.028,43.812 63.361,44.202 63.695,44.594 64.028,44.983 64.362,45.374
		64.695,45.766 65.028,46.155 65.362,46.547 65.695,46.937 66.029,47.327 66.362,47.719 66.696,48.108 67.03,48.499 67.474,49.021
		67.807,49.41 68.141,49.803 68.474,50.192 68.808,50.583 69.141,50.974 69.475,51.364 69.808,51.886 70.142,52.276 70.476,52.666
		70.809,53.058 71.142,53.447 71.476,53.969 71.809,54.359 72.143,54.75 72.476,55.142 72.921,55.531 73.255,56.053 73.588,56.443
		73.921,56.833 74.255,57.225 74.588,57.615 74.922,58.137 75.255,58.526 75.588,58.917 75.922,59.308 76.256,59.828 76.589,60.22
		76.923,60.61 77.256,61.002 77.59,61.521 77.923,61.912 78.367,62.304 78.701,62.824 79.035,63.215 79.368,63.605 79.702,63.996
		80.035,64.517 80.369,64.907 80.702,65.299 81.036,65.688 81.369,66.211 81.702,66.601 82.036,66.99 82.369,67.513 82.703,67.902
		83.036,68.294 83.481,68.814 83.815,69.204 84.148,69.596 84.481,69.986 84.815,70.508 85.148,70.897 85.482,71.288 85.815,71.81
		86.149,72.199 86.482,72.591 86.816,72.981 87.15,73.502 87.483,73.893 87.816,74.283 88.15,74.805 88.483,75.195 88.928,75.586
		89.261,76.106 89.595,76.497 89.929,76.888 90.262,77.278 90.595,77.8 90.929,78.19 91.262,78.581 91.596,78.972 91.929,79.492
		92.262,79.884 92.596,80.273 92.929,80.795 93.263,81.186 93.597,81.575 93.93,81.967 94.375,82.487 94.708,82.879 95.041,83.269
		95.375,83.659 95.708,84.181 96.042,84.57 96.376,84.962 96.709,85.353 97.043,85.743 97.376,86.264 97.71,86.654 98.043,87.046
		98.376,87.436 98.71,87.826 99.043,88.348 99.488,88.738 99.822,89.129 100.155,89.52 100.489,89.909 100.822,90.431
		101.155,90.821 101.489,91.213 101.822,91.604 102.156,91.993 102.489,92.384 102.823,92.775 103.156,93.296 103.49,93.687
		103.823,94.077 104.157,94.468 104.49,94.858 104.935,95.249 105.268,95.64 105.602,96.03 105.935,96.421 106.269,96.812
		106.602,97.202 106.936,97.593 107.269,97.983 107.603,98.374 107.936,98.766 108.27,99.155 108.603,99.547 108.936,99.938
		109.27,100.327 109.603,100.719 109.937,101.109 110.382,101.499 110.715,101.891 111.049,102.28 111.382,102.672 111.715,103.062
		112.049,103.452 112.382,103.844 112.716,104.234 113.05,104.625 113.383,104.886 113.717,105.276 114.05,105.666 114.384,106.058
		114.717,106.448 115.05,106.839 115.384,107.1 115.829,107.489 116.162,107.881 116.496,108.271 116.829,108.531 117.163,108.923
		117.496,109.312 117.829,109.703 118.163,109.964 118.496,110.354 118.83,110.745 119.163,111.007 119.497,111.396 119.83,111.787
		120.164,112.048 120.497,112.438 120.942,112.828 121.275,113.09 121.609,113.48 121.942,113.74 122.276,114.132 122.609,114.392
		122.943,114.782 123.276,115.042 123.61,115.434 123.943,115.694 124.277,116.084 124.61,116.346 124.944,116.735 125.277,116.996
		125.61,117.387 125.944,117.647 126.389,118.037 126.722,118.299 127.056,118.559 127.389,118.949 127.723,119.209
		128.056,119.471 128.389,119.86 128.723,120.121 129.056,120.382 129.39,120.643 129.723,121.032 130.057,121.294 130.391,121.555
		130.724,121.814 131.058,122.205 131.391,122.466 131.835,122.726 132.169,122.985 132.502,123.246 132.836,123.508
		133.17,123.768 133.503,124.028 133.837,124.288 134.17,124.68 134.503,124.939 134.837,125.2 135.17,125.461 135.504,125.721
		135.837,125.981 136.171,126.111 136.504,126.371 136.949,126.633 137.282,126.893 137.616,127.153 137.949,127.414
		138.283,127.675 138.616,127.935 138.95,128.065 139.283,128.325 139.617,128.586 139.95,128.846 140.284,128.977 140.617,129.236
		140.951,129.497 141.284,129.758 141.618,129.889 141.951,130.148 142.396,130.408 142.729,130.539 143.063,130.8 143.396,130.93
		143.73,131.19 144.063,131.32 144.397,131.58 144.73,131.712 145.063,131.972 145.397,132.102 145.73,132.362 146.064,132.492
		146.397,132.753 146.731,132.883 147.064,133.144 147.398,133.273 147.842,133.403 148.176,133.664 148.509,133.795
		148.843,133.926 149.176,134.055 149.51,134.315 149.843,134.445 150.177,134.576 150.511,134.705 150.844,134.837
		151.177,135.097 151.511,135.228 151.844,135.357 152.178,135.487 152.511,135.617 152.956,135.748 153.29,135.879
		153.623,136.009 153.956,136.139 154.29,136.269 154.623,136.399 154.957,136.529 155.29,136.659 155.623,136.789 155.957,136.92
		156.291,136.92 156.624,137.051 156.958,137.181 157.291,137.311 157.625,137.44 157.958,137.44 158.402,137.571 158.736,137.701
		159.07,137.701 159.403,137.831 159.737,137.962 160.07,137.962 160.404,138.092 160.737,138.223 161.071,138.223 161.404,138.353
		161.737,138.353 162.071,138.482 162.404,138.482 162.738,138.612 163.071,138.612 163.405,138.742 163.85,138.742
		164.183,138.742 164.516,138.873 164.85,138.873 165.183,138.873 165.517,139.004 165.85,139.004 166.184,139.004 166.517,139.004
		166.851,139.134 167.184,139.134 167.518,139.134 167.851,139.134 168.185,139.134 168.518,139.134 168.852,139.264
		169.296,139.264 169.63,139.264 169.963,139.264 170.297,139.264 170.63,139.264 170.964,139.264 171.297,139.264 171.631,139.264
		171.964,139.134 172.297,139.134 172.631,139.134 172.964,139.134 173.298,139.134 173.632,139.134 173.965,139.004
		174.41,139.004 174.743,139.004 175.076,139.004 175.41,138.873 175.743,138.873 176.077,138.873 176.411,138.742 176.744,138.742
		177.078,138.742 177.411,138.612 177.745,138.612 178.078,138.482 178.411,138.482 178.745,138.353 179.078,138.353
		179.412,138.223 179.857,138.223 180.19,138.092 180.524,137.962 180.857,137.962 181.19,137.831 181.524,137.701 181.857,137.701
		182.191,137.571 182.524,137.44 182.858,137.44 183.191,137.311 183.525,137.181 183.858,137.051 184.192,136.92 184.525,136.92
		184.859,136.789 185.303,136.659 185.637,136.529 185.97,136.399 186.304,136.269 186.637,136.139 186.971,136.009
		187.304,135.879 187.638,135.748 187.971,135.617 188.305,135.487 188.638,135.357 188.971,135.228 189.305,135.097
		189.638,134.837 189.972,134.705 190.417,134.576 190.75,134.445 191.084,134.315 191.417,134.055 191.75,133.926 192.084,133.795
		192.417,133.664 192.751,133.403 193.084,133.273 193.418,133.144 193.752,132.883 194.085,132.753 194.419,132.492
		194.752,132.362 195.085,132.102 195.419,131.972 195.863,131.712 196.197,131.58 196.531,131.32 196.864,131.19 197.198,130.93
		197.531,130.8 197.864,130.539 198.198,130.408 198.531,130.148 198.865,129.889 199.198,129.758 199.532,129.497 199.865,129.236
		200.199,128.977 200.532,128.846 200.866,128.586 201.31,128.325 201.644,128.065 201.977,127.935 202.311,127.675
		202.644,127.414 202.978,127.153 203.311,126.893 203.645,126.633 203.978,126.371 204.312,126.111 204.645,125.981
		204.979,125.721 205.312,125.461 205.645,125.2 205.979,124.939 206.312,124.68 206.757,124.288 207.091,124.028 207.424,123.768
		207.758,123.508 208.091,123.246 208.424,122.985 208.758,122.726 209.091,122.466 209.425,122.205 209.758,121.814
		210.092,121.555 210.426,121.294 210.759,121.032 211.093,120.643 211.426,120.382 211.87,120.121 212.204,119.86 212.537,119.471
		212.871,119.209 213.205,118.949 213.538,118.559 213.872,118.299 214.205,118.037 214.538,117.647 214.872,117.387
		215.205,116.996 215.539,116.735 215.872,116.346 216.205,116.084 216.539,115.694 216.873,115.434 217.317,115.042
		217.651,114.782 217.984,114.392 218.318,114.132 218.651,113.74 218.984,113.48 219.318,113.09 219.652,112.828 219.985,112.438
		220.319,112.048 220.652,111.787 220.986,111.396 221.319,111.007 221.653,110.745 221.986,110.354 222.319,109.964
		222.764,109.703 223.098,109.312 223.431,108.923 223.765,108.531 224.098,108.271 224.432,107.881 224.765,107.489 225.098,107.1
		225.432,106.839 225.765,106.448 226.099,106.058 226.432,105.666 226.766,105.276 227.099,104.886 227.433,104.625
		227.877,104.234 228.211,103.844 228.544,103.452 228.878,103.062 229.211,102.672 229.545,102.28 229.878,101.891
		230.212,101.499 230.546,101.109 230.879,100.719 231.212,100.327 231.546,99.938 231.879,99.547 232.213,99.155 232.546,98.766
		232.879,98.374 233.325,97.983 233.658,97.593 233.991,97.202 234.325,96.812 234.658,96.421 234.992,96.03 235.325,95.64
		235.658,95.249 235.992,94.858 236.326,94.468 236.659,94.077 236.993,93.687 237.326,93.296 237.66,92.775 237.993,92.384
		238.327,91.993 238.771,91.604 239.105,91.213 239.438,90.821 239.772,90.431 240.105,89.909 240.439,89.52 240.772,89.129
		241.106,88.738 241.439,88.348 241.772,87.826 242.106,87.436 242.439,87.046 242.773,86.654 243.106,86.264 243.44,85.743
		243.885,85.353 244.218,84.962 244.551,84.57 244.885,84.181 245.218,83.659 245.552,83.269 245.885,82.879 246.219,82.487
		246.552,81.967 246.886,81.575 247.219,81.186 247.553,80.795 247.886,80.273 248.22,79.884 248.553,79.492 248.887,78.972
		249.331,78.581 249.665,78.19 249.998,77.8 250.332,77.278 250.665,76.888 250.999,76.497 251.332,76.106 251.666,75.586
		251.999,75.195 252.332,74.805 252.666,74.283 252.999,73.893 253.333,73.502 253.667,72.981 254,72.591 254.334,72.199
		254.778,71.81 255.111,71.288 255.445,70.897 255.778,70.508 256.112,69.986 256.446,69.596 256.779,69.204 257.113,68.814
		257.446,68.294 257.78,67.902 258.113,67.513 258.446,66.99 258.78,66.601 259.113,66.211 259.447,65.688 259.78,65.299
		260.225,64.907 260.559,64.517 260.892,63.996 261.225,63.605 261.559,63.215 261.892,62.824 262.226,62.304 262.559,61.912
		262.893,61.521 263.226,61.002 263.56,60.61 263.893,60.22 264.227,59.828 264.56,59.308 264.894,58.917 265.338,58.526
		265.672,58.137 266.005,57.615 266.339,57.225 266.672,56.833 267.006,56.443 267.339,56.053 267.673,55.531 268.006,55.142
		268.34,54.75 268.673,54.359 269.006,53.969 269.34,53.447 269.673,53.058 270.007,52.666 270.34,52.276 270.785,51.886
		271.119,51.364 271.452,50.974 271.785,50.583 272.119,50.192 272.452,49.803 272.786,49.41 273.119,49.021 273.453,48.499
		273.787,48.108 274.12,47.719 274.454,47.327 274.787,46.937 275.12,46.547 275.454,46.155 275.787,45.766 276.232,45.374
		276.566,44.983 276.899,44.594 277.233,44.202 277.566,43.812 277.899,43.422 278.233,43.03 278.566,42.64 278.9,42.248
		279.233,41.858 279.567,41.469 279.9,41.076 280.234,40.687 280.567,40.296 280.901,39.905 281.345,39.515 281.679,39.123
		282.012,38.733 282.345,38.343 282.679,37.951 283.013,37.562 283.346,37.171 283.68,36.91 284.013,36.52 284.347,36.129
		284.68,35.737 285.014,35.348 285.347,34.956 285.68,34.696 286.014,34.306 286.347,33.914 286.792,33.524 287.126,33.264
		287.459,32.873 287.793,32.482 288.126,32.092 288.459,31.831 288.793,31.44 289.126,31.051 289.46,30.789 289.793,30.399
		290.127,30.009 290.46,29.748 290.794,29.357 291.128,28.967 291.461,28.705 291.794,28.315 292.239,28.055 292.572,27.664
		292.906,27.403 293.239,27.014 293.573,26.753 293.907,26.362 294.24,26.102 294.573,25.712 294.907,25.45 295.24,25.061
		295.574,24.8 295.907,24.408 296.24,24.148 296.574,23.758 296.908,23.497 297.241,23.237 297.686,22.846 298.019,22.586
		298.353,22.325 298.686,21.935 299.019,21.675 299.353,21.413 299.687,21.153 300.02,20.763 300.354,20.503 300.687,20.241
		301.021,19.981 301.354,19.591 301.688,19.33 302.021,19.069 302.354,18.81 302.799,18.549 303.133,18.288 303.466,18.028
		303.8,17.768 304.133,17.507 304.467,17.116 304.8,16.855 305.133,16.596 305.467,16.334 305.8,16.074 306.134,15.814
		306.467,15.684 306.801,15.424 307.134,15.163 307.468,14.902 307.801,14.643 308.246,14.382 308.579,14.121 308.913,13.86
		309.246,13.73 309.58,13.471 309.913,13.209 310.247,12.949 310.58,12.819 310.914,12.559 311.247,12.298 311.581,12.037
		311.914,11.907 312.248,11.646 312.581,11.387 312.914,11.257 313.248,10.995 313.693,10.866 314.026,10.605 314.36,10.475
		314.693,10.215 315.027,10.084 315.36,9.823 315.693,9.693 316.027,9.434 316.36,9.304 316.694,9.043 317.028,8.912 317.361,8.652
		317.695,8.521 318.028,8.392 318.362,8.132 318.806,8 319.139,7.87 319.473,7.74 319.807,7.48 320.14,7.35 320.474,7.22
		320.807,7.09 321.141,6.959 321.474,6.698 321.807,6.568 322.141,6.438 322.474,6.309 322.808,6.178 323.141,6.048 323.475,5.917
		323.808,5.786 324.253,5.657 324.586,5.526 324.92,5.396 325.253,5.267 325.587,5.136 325.92,5.007 326.254,4.875 326.587,4.875
		326.921,4.745 327.254,4.615 327.588,4.484 327.921,4.354 328.255,4.354 328.588,4.225 328.922,4.095 329.255,4.095 329.7,3.964
		330.033,3.833 330.367,3.833 330.7,3.703 331.034,3.573 331.367,3.573 331.701,3.443 332.034,3.443 332.367,3.312 332.701,3.312
		333.034,3.183 333.368,3.183 333.701,3.053 334.035,3.053 334.369,3.053 334.813,2.923 335.146,2.923 335.48,2.923 335.813,2.792
		336.147,2.792 336.48,2.792 336.814,2.792 337.148,2.661 337.481,2.661 337.815,2.661 338.148,2.661 338.481,2.661 338.815,2.661
		339.148,2.531 339.482,2.531 339.815,2.531 340.26,2.531 340.594,2.531 	"/>
</g>
<g>
</g>
<g>
</g>
<g>
</g>
<g>
</g>
<g>
</g>
<g>
</g>
<g>
</g>
<g>
</g>
<g>
</g>
<g>
</g>
<g>
</g>
<g>
</g>
<g>
</g>
<g>
</g>
<g>
</g>
</svg>
