<?xml version="1.0" encoding="utf-8"?>
<!-- Generator: Adobe Illustrator 16.2.1, SVG Export Plug-In . SVG Version: 6.00 Build 0)  -->
<!DOCTYPE svg PUBLIC "-//W3C//DTD SVG 1.1//EN" "http://www.w3.org/Graphics/SVG/1.1/DTD/svg11.dtd">
<svg version="1.1" id="Layer_1" xmlns="http://www.w3.org/2000/svg" xmlns:xlink="http://www.w3.org/1999/xlink" x="0px" y="0px"
	 width="15px" height="15px" viewBox="298.5 0 15 15" enable-background="new 298.5 0 15 15" xml:space="preserve">
<path fill="#0000FF" d="M307.551,7.496l5.63-5.629c0.426-0.427,0.426-1.121,0-1.554c-0.427-0.427-1.121-0.427-1.555,0l-5.629,5.629
	l-5.623-5.624c-0.427-0.426-1.121-0.426-1.554,0c-0.426,0.427-0.426,1.121,0,1.554l5.63,5.629l-5.63,5.63
	c-0.426,0.426-0.426,1.121,0,1.554c0.213,0.213,0.494,0.323,0.774,0.323s0.561-0.11,0.774-0.323l5.629-5.63l5.629,5.63
	c0.214,0.213,0.494,0.323,0.774,0.323s0.561-0.11,0.774-0.323c0.426-0.427,0.426-1.121,0-1.554L307.551,7.496z"/>
</svg>
