<?xml version="1.0" encoding="utf-8"?>
<!-- Generator: Adobe Illustrator 16.2.1, SVG Export Plug-In . SVG Version: 6.00 Build 0)  -->
<!DOCTYPE svg PUBLIC "-//W3C//DTD SVG 1.1//EN" "http://www.w3.org/Graphics/SVG/1.1/DTD/svg11.dtd">
<svg version="1.1" id="Laag_1" xmlns="http://www.w3.org/2000/svg" xmlns:xlink="http://www.w3.org/1999/xlink" x="0px" y="0px"
	 width="50px" height="50px" viewBox="0 0 50 50" enable-background="new 0 0 50 50" xml:space="preserve">
<path id="Blue_1_" fill="#FFFFFF" d="M2.759,0C1.235,0,0,1.235,0,2.759v44.483C0,48.766,1.234,50,2.759,50h23.948V30.643H20.19
	v-7.549h6.517v-5.566c0-6.458,3.945-9.973,9.707-9.973c2.759,0,5.129,0.205,5.82,0.297V14.6h-3.996c-3.133,0-3.74,1.489-3.74,3.674
	v4.82h7.475l-0.975,7.549h-6.501V50h12.745C48.766,50,50,48.766,50,47.242V2.759C50,1.235,48.766,0,47.242,0H2.759L2.759,0z"/>
</svg>
