<?xml version="1.0" encoding="utf-8"?>
<!-- Generator: Adobe Illustrator 22.1.0, SVG Export Plug-In . SVG Version: 6.00 Build 0)  -->
<svg version="1.1" id="Layer_1" xmlns="http://www.w3.org/2000/svg" xmlns:xlink="http://www.w3.org/1999/xlink" x="0px" y="0px"
	 viewBox="0 0 50 50" style="enable-background:new 0 0 50 50;" xml:space="preserve">
<g>
	<g>
		<g>
			<path d="M25,17.5c-4.1,0-7.5,3.3-7.5,7.5s3.3,7.5,7.5,7.5s7.5-3.3,7.5-7.5S29.1,17.5,25,17.5z M44.8,2.5H5.2
				c-1.5,0-2.7,1.2-2.7,2.7v39.6c0,1.5,1.2,2.7,2.7,2.7h39.6c1.5,0,2.7-1.2,2.7-2.7V5.2C47.5,3.7,46.3,2.5,44.8,2.5z M25,37.5
				c-6.9,0-12.5-5.6-12.5-12.5S18.1,12.5,25,12.5S37.5,18.1,37.5,25S31.9,37.5,25,37.5z M40,12.5c-1.4,0-2.5-1.1-2.5-2.5
				c0-1.4,1.1-2.5,2.5-2.5c1.4,0,2.5,1.1,2.5,2.5C42.5,11.4,41.4,12.5,40,12.5z" fill="#fff"/>
		</g>
	</g>
</g>
</svg>
