<?xml version="1.0" encoding="utf-8"?>
<!-- Generator: Adobe Illustrator 22.1.0, SVG Export Plug-In . SVG Version: 6.00 Build 0)  -->
<svg version="1.1" id="Laag_1" xmlns="http://www.w3.org/2000/svg" xmlns:xlink="http://www.w3.org/1999/xlink" x="0px" y="0px"
	 viewBox="0 0 385 335" style="enable-background:new 0 0 385 335;" xml:space="preserve">
<style type="text/css">
	.st0{fill:none;stroke:#0000FF;stroke-width:5;stroke-miterlimit:10;}
	.st1{fill:none;}
	.st2{fill:#0000FF;}
	.st3{font-family:'NEXTBook-Regular';}
	.st4{font-size:64px;}
	.st5{fill:none;stroke:#000000;stroke-width:5;stroke-miterlimit:10;}
	.st6{fill:none;stroke:#FFFFFF;stroke-width:5;stroke-miterlimit:10;}
	.st7{fill:#FFFFFF;}
	.st8{fill:none;stroke:#144729;stroke-width:5;stroke-miterlimit:10;}
	.st9{fill:#144729;}
</style>
<rect x="2.5" y="2.5" class="st0" width="380" height="330"/>
<rect x="2.5" y="117.5" class="st0" width="380" height="215"/>
<rect x="27.5" y="28.9" class="st1" width="358.6" height="69.2"/>
<text transform="matrix(1 0 0 1 27.5273 74.3223)" class="st2 st3 st4">one acre</text>
<rect x="27.5" y="245.8" class="st1" width="357.2" height="69.2"/>
<text transform="matrix(1 0 0 1 27.5273 291.248)" class="st2 st3 st4">.online</text>
<g>
	<rect x="565.5" y="2.5" class="st5" width="380" height="330"/>
	<rect x="565.5" y="117.5" class="st5" width="380" height="215"/>
</g>
<rect x="590.5" y="28.9" class="st1" width="358.6" height="69.2"/>
<text transform="matrix(1 0 0 1 590.5273 74.3223)" class="st3 st4">one acre</text>
<rect x="590.5" y="245.8" class="st1" width="357.2" height="69.2"/>
<text transform="matrix(1 0 0 1 590.5273 291.248)" class="st3 st4">.online</text>
<g>
	<rect x="1107.5" y="2.5" class="st6" width="380" height="330"/>
	<rect x="1107.5" y="117.5" class="st6" width="380" height="215"/>
</g>
<rect x="1132.5" y="28.9" class="st1" width="358.6" height="69.2"/>
<text transform="matrix(1 0 0 1 1132.5273 74.3223)" class="st7 st3 st4">one acre</text>
<rect x="1132.5" y="245.8" class="st1" width="357.2" height="69.2"/>
<text transform="matrix(1 0 0 1 1132.5273 291.248)" class="st7 st3 st4">.online</text>
<g>
	<rect x="1623.5" y="2.5" class="st8" width="380" height="330"/>
	<rect x="1623.5" y="117.5" class="st8" width="380" height="215"/>
</g>
<rect x="1648.5" y="28.9" class="st1" width="358.6" height="69.2"/>
<text transform="matrix(1 0 0 1 1648.5273 74.3223)" class="st9 st3 st4">one acre</text>
<rect x="1648.5" y="245.8" class="st1" width="357.2" height="69.2"/>
<text transform="matrix(1 0 0 1 1648.5273 291.248)" class="st9 st3 st4">.online</text>
</svg>
